<svg xmlns="http://www.w3.org/2000/svg" xmlns:xlink="http://www.w3.org/1999/xlink" width="1600" zoomAndPan="magnify" viewBox="0 0 1200 749.999995" height="1000" preserveAspectRatio="xMidYMid meet" version="1.0"><defs><g/><clipPath id="63bc1c5529"><path d="M 773.257812 223.042969 L 948 223.042969 L 948 266 L 773.257812 266 Z M 773.257812 223.042969 " clip-rule="nonzero"/></clipPath><clipPath id="20123d97da"><path d="M 772.222656 244.515625 C 772.222656 256.945312 782.296875 267.019531 794.726562 267.019531 L 925.953125 267.019531 C 938.382812 267.019531 948.457031 256.945312 948.457031 244.515625 C 948.457031 232.085938 938.382812 222.007812 925.953125 222.007812 L 794.726562 222.007812 C 782.296875 222.007812 772.222656 232.085938 772.222656 244.515625 Z M 772.222656 244.515625 " clip-rule="nonzero"/></clipPath><clipPath id="868b5759dd"><path d="M 794.726562 223.25 L 925.953125 223.25 C 937.695312 223.25 947.214844 232.769531 947.214844 244.515625 C 947.214844 256.257812 937.695312 265.777344 925.953125 265.777344 L 794.726562 265.777344 C 782.984375 265.777344 773.464844 256.257812 773.464844 244.515625 C 773.464844 232.769531 782.984375 223.25 794.726562 223.25 Z M 794.726562 223.25 " clip-rule="nonzero"/></clipPath><clipPath id="888c6f922e"><path d="M 772.222656 222.007812 L 948.082031 222.007812 L 948.082031 267.511719 L 772.222656 267.511719 Z M 772.222656 222.007812 " clip-rule="nonzero"/></clipPath><clipPath id="e9e8e272c2"><path d="M 772.222656 244.515625 C 772.222656 256.945312 782.296875 267.019531 794.726562 267.019531 L 925.953125 267.019531 C 938.382812 267.019531 948.457031 256.945312 948.457031 244.515625 C 948.457031 232.085938 938.382812 222.007812 925.953125 222.007812 L 794.726562 222.007812 C 782.296875 222.007812 772.222656 232.085938 772.222656 244.515625 Z M 772.222656 244.515625 " clip-rule="nonzero"/></clipPath><clipPath id="cbe712d05b"><path d="M 772.222656 244.507812 C 772.222656 256.933594 782.296875 267.007812 794.726562 267.007812 L 925.945312 267.007812 C 938.375 267.007812 948.453125 256.933594 948.453125 244.507812 C 948.453125 232.082031 938.375 222.007812 925.945312 222.007812 L 794.726562 222.007812 C 782.296875 222.007812 772.222656 232.082031 772.222656 244.507812 Z M 772.222656 244.507812 " clip-rule="nonzero"/></clipPath></defs><path fill="#45aaf7" d="M -441.847656 856.191406 C -424.703125 849.886719 -390.417969 834.84375 -356.132812 824.816406 C -321.847656 814.953125 -304.703125 815.113281 -270.417969 806.542969 C -236.132812 797.972656 -218.992188 793.28125 -184.707031 781.476562 C -150.421875 769.671875 -133.277344 761.746094 -98.992188 747.515625 C -64.707031 733.28125 -47.566406 715.65625 -13.28125 709.996094 C 21.007812 704.171875 38.148438 735.546875 72.433594 718.566406 C 106.71875 701.585938 123.863281 630.101562 158.148438 625.089844 C 192.433594 620.078125 209.574219 689.292969 243.859375 693.660156 C 278.144531 698.027344 295.289062 686.382812 329.574219 646.597656 C 363.859375 606.816406 381 498.785156 415.285156 494.257812 C 449.570312 489.726562 466.714844 612.636719 501 624.121094 C 535.285156 635.601562 552.429688 597.113281 586.714844 551.183594 C 621 505.253906 638.140625 446.871094 672.425781 394.3125 C 706.710938 341.75 723.855469 318.464844 758.140625 288.707031 C 792.425781 258.949219 809.566406 210.59375 843.851562 245.6875 C 878.136719 280.78125 895.28125 474.039062 929.566406 464.015625 C 963.851562 453.988281 980.996094 231.941406 1015.28125 195.714844 C 1049.566406 159.488281 1066.707031 283.371094 1100.992188 282.722656 C 1135.277344 282.074219 1169.5625 210.433594 1186.707031 192.320312 L 1175.386719 864.601562 L -441.847656 864.601562 Z M -441.847656 856.191406 " fill-opacity="0.18" fill-rule="nonzero"/><path fill="#45aaf7" d="M -440.714844 859.265625 L -442.976562 853.121094 C -438.289062 851.339844 -432.140625 848.914062 -425.027344 846.164062 C -406.914062 838.886719 -382.007812 829.023438 -357.101562 821.746094 C -338.179688 816.246094 -324.597656 813.820312 -310.203125 811.394531 C -298.558594 809.453125 -286.589844 807.351562 -271.226562 803.472656 C -238.074219 795.0625 -220.609375 790.53125 -185.839844 778.566406 C -158.34375 769.183594 -141.847656 762.070312 -118.882812 752.367188 C -113.222656 749.941406 -107.078125 747.351562 -100.285156 744.605469 C -87.671875 739.265625 -77.484375 733.605469 -67.457031 728.109375 C -51.121094 719.050781 -35.757812 710.480469 -13.765625 706.761719 C 2.40625 704.011719 14.699219 709.023438 26.503906 713.714844 C 40.898438 719.535156 53.351562 724.386719 71.140625 715.65625 C 86.34375 708.214844 98.308594 688.648438 110.117188 669.886719 C 124.507812 646.761719 138.09375 624.765625 157.824219 622.015625 C 177.714844 619.105469 191.945312 638.191406 205.695312 656.625 C 217.335938 672.3125 229.46875 688.648438 244.507812 690.425781 C 275.882812 694.308594 292.214844 685.25 327.308594 644.335938 C 341.703125 627.515625 353.183594 597.921875 364.34375 569.296875 C 379.382812 530.480469 393.617188 493.609375 415.125 490.859375 C 435.503906 488.109375 449.085938 521.265625 463.320312 556.519531 C 475.125 585.792969 487.414062 615.871094 502.292969 620.886719 C 527.847656 629.457031 543.371094 607.300781 566.820312 573.664062 C 572.320312 565.738281 577.980469 557.652344 584.449219 549.082031 C 602.722656 524.660156 615.824219 497.003906 629.730469 467.734375 C 641.699219 442.667969 653.992188 416.789062 670 392.371094 C 703.476562 340.78125 720.621094 316.847656 756.039062 286.117188 C 765.253906 278.195312 773.019531 268.976562 780.621094 260.082031 C 794.042969 244.230469 805.6875 230.648438 820.242188 230 C 828.8125 229.675781 837.222656 234.042969 846.277344 243.261719 C 862.453125 259.917969 874.742188 309.082031 886.546875 356.792969 C 898.191406 403.691406 910.160156 452.046875 923.90625 459.972656 C 925.523438 460.941406 927.140625 461.101562 928.757812 460.617188 C 944.769531 455.925781 958.839844 389.136719 971.128906 330.105469 C 983.90625 268.976562 996.035156 211.078125 1013.015625 193.128906 C 1018.515625 187.46875 1024.175781 185.042969 1029.835938 185.851562 C 1043.582031 187.953125 1053.929688 209.460938 1064.929688 232.265625 C 1075.441406 254.257812 1087.410156 279.324219 1100.667969 279.324219 C 1100.667969 279.324219 1100.832031 279.324219 1100.832031 279.324219 C 1123.796875 278.839844 1148.054688 242.292969 1165.84375 215.605469 C 1173.121094 204.773438 1179.265625 195.390625 1184.28125 190.054688 L 1188.96875 194.582031 C 1184.28125 199.433594 1178.296875 208.652344 1171.179688 219.328125 C 1152.746094 247.144531 1127.355469 285.472656 1100.992188 285.957031 C 1100.832031 285.957031 1100.832031 285.957031 1100.667969 285.957031 C 1083.363281 285.957031 1070.914062 260.242188 1058.945312 235.175781 C 1049.402344 214.960938 1039.375 193.9375 1028.863281 192.320312 C 1025.304688 191.832031 1021.585938 193.613281 1017.542969 197.816406 C 1001.855469 214.476562 989.402344 273.988281 977.273438 331.5625 C 960.457031 412.101562 948.8125 461.589844 930.375 466.925781 C 926.980469 467.894531 923.746094 467.410156 920.511719 465.632812 C 904.335938 456.25 893.015625 410.96875 880.078125 358.410156 C 868.433594 311.671875 856.46875 263.152344 841.589844 247.789062 C 833.988281 240.027344 827.035156 236.308594 820.402344 236.46875 C 808.757812 236.792969 797.925781 249.570312 785.472656 264.125 C 778.03125 272.695312 769.785156 282.558594 760.242188 290.808594 C 725.472656 320.890625 708.492188 344.664062 675.175781 395.765625 C 659.328125 419.863281 647.199219 445.578125 635.390625 470.484375 C 621.324219 500.078125 608.0625 527.894531 589.460938 552.800781 C 583.15625 561.371094 577.496094 569.457031 571.996094 577.21875 C 551.457031 606.652344 535.769531 628.972656 513.128906 629.132812 C 509.085938 629.132812 504.71875 628.484375 500.191406 626.867188 C 482.402344 621.046875 470.273438 590.804688 457.171875 558.785156 C 444.398438 527.570312 431.296875 495.066406 415.773438 497.167969 C 398.144531 499.429688 383.914062 536.140625 370.167969 571.558594 C 358.847656 600.671875 347.203125 630.75 332 648.539062 C 302.242188 683.148438 284.292969 697.542969 255.988281 697.542969 C 251.945312 697.542969 247.902344 697.21875 243.375 696.734375 C 225.746094 694.46875 212.808594 677.164062 200.195312 660.347656 C 186.933594 642.554688 174.480469 625.898438 158.472656 628.324219 C 141.652344 630.75 128.875 651.449219 115.289062 673.285156 C 103.160156 692.851562 90.546875 713.230469 73.726562 721.476562 C 53.351562 731.503906 38.308594 725.519531 23.917969 719.699219 C 12.921875 715.332031 1.4375 710.640625 -12.792969 713.066406 C -33.65625 716.625 -47.886719 724.550781 -64.382812 733.605469 C -74.410156 739.265625 -84.761719 744.925781 -97.859375 750.425781 C -104.652344 753.175781 -110.636719 755.761719 -116.296875 758.1875 C -139.421875 767.890625 -156.082031 775.007812 -183.734375 784.550781 C -218.828125 796.679688 -236.457031 801.207031 -269.773438 809.617188 C -285.460938 813.496094 -297.425781 815.601562 -309.234375 817.703125 C -323.464844 820.128906 -336.886719 822.554688 -355.484375 827.890625 C -380.066406 835.007812 -404.648438 844.871094 -422.761719 851.988281 C -429.714844 854.898438 -435.863281 857.484375 -440.714844 859.265625 Z M -440.714844 859.265625 " fill-opacity="1" fill-rule="nonzero"/><path fill="#45aaf7" d="M 85.371094 718.566406 C 85.371094 719.414062 85.289062 720.257812 85.121094 721.089844 C 84.957031 721.921875 84.710938 722.730469 84.386719 723.515625 C 84.0625 724.300781 83.664062 725.046875 83.191406 725.753906 C 82.71875 726.460938 82.183594 727.113281 81.582031 727.714844 C 80.980469 728.316406 80.328125 728.851562 79.621094 729.324219 C 78.914062 729.796875 78.167969 730.195312 77.386719 730.519531 C 76.601562 730.84375 75.792969 731.089844 74.957031 731.253906 C 74.125 731.421875 73.285156 731.503906 72.433594 731.503906 C 71.585938 731.503906 70.742188 731.421875 69.910156 731.253906 C 69.078125 731.089844 68.265625 730.84375 67.484375 730.519531 C 66.699219 730.195312 65.953125 729.796875 65.246094 729.324219 C 64.539062 728.851562 63.886719 728.316406 63.285156 727.714844 C 62.683594 727.113281 62.148438 726.460938 61.675781 725.753906 C 61.203125 725.046875 60.804688 724.300781 60.480469 723.515625 C 60.15625 722.730469 59.910156 721.921875 59.746094 721.089844 C 59.578125 720.257812 59.496094 719.414062 59.496094 718.566406 C 59.496094 717.714844 59.578125 716.875 59.746094 716.042969 C 59.910156 715.207031 60.15625 714.398438 60.480469 713.613281 C 60.804688 712.832031 61.203125 712.085938 61.675781 711.378906 C 62.148438 710.671875 62.683594 710.019531 63.285156 709.417969 C 63.886719 708.816406 64.539062 708.28125 65.246094 707.808594 C 65.953125 707.335938 66.699219 706.9375 67.484375 706.613281 C 68.265625 706.289062 69.078125 706.042969 69.910156 705.875 C 70.742188 705.710938 71.585938 705.628906 72.433594 705.628906 C 73.285156 705.628906 74.125 705.710938 74.957031 705.875 C 75.792969 706.042969 76.601562 706.289062 77.386719 706.613281 C 78.167969 706.9375 78.914062 707.335938 79.621094 707.808594 C 80.328125 708.28125 80.980469 708.816406 81.582031 709.417969 C 82.183594 710.019531 82.71875 710.671875 83.191406 711.378906 C 83.664062 712.085938 84.0625 712.832031 84.386719 713.613281 C 84.710938 714.398438 84.957031 715.207031 85.121094 716.042969 C 85.289062 716.875 85.371094 717.714844 85.371094 718.566406 Z M 85.371094 718.566406 " fill-opacity="1" fill-rule="nonzero"/><path fill="#45aaf7" d="M 171.085938 625.25 C 171.085938 626.101562 171.003906 626.941406 170.835938 627.777344 C 170.671875 628.609375 170.425781 629.417969 170.101562 630.203125 C 169.773438 630.988281 169.375 631.734375 168.90625 632.441406 C 168.433594 633.144531 167.894531 633.800781 167.296875 634.398438 C 166.695312 635 166.042969 635.539062 165.335938 636.007812 C 164.628906 636.480469 163.882812 636.878906 163.097656 637.203125 C 162.3125 637.53125 161.503906 637.773438 160.671875 637.941406 C 159.839844 638.105469 158.996094 638.191406 158.148438 638.191406 C 157.296875 638.191406 156.457031 638.105469 155.621094 637.941406 C 154.789062 637.773438 153.980469 637.53125 153.195312 637.203125 C 152.410156 636.878906 151.664062 636.480469 150.960938 636.007812 C 150.253906 635.539062 149.597656 635 149 634.398438 C 148.398438 633.800781 147.863281 633.144531 147.390625 632.441406 C 146.917969 631.734375 146.519531 630.988281 146.195312 630.203125 C 145.867188 629.417969 145.625 628.609375 145.457031 627.777344 C 145.292969 626.941406 145.210938 626.101562 145.210938 625.25 C 145.210938 624.402344 145.292969 623.5625 145.457031 622.726562 C 145.625 621.894531 145.867188 621.085938 146.195312 620.300781 C 146.519531 619.515625 146.917969 618.769531 147.390625 618.0625 C 147.863281 617.359375 148.398438 616.703125 149 616.101562 C 149.597656 615.503906 150.253906 614.964844 150.960938 614.496094 C 151.664062 614.023438 152.410156 613.625 153.195312 613.296875 C 153.980469 612.972656 154.789062 612.726562 155.621094 612.5625 C 156.457031 612.398438 157.296875 612.3125 158.148438 612.3125 C 158.996094 612.3125 159.839844 612.398438 160.671875 612.5625 C 161.503906 612.726562 162.3125 612.972656 163.097656 613.296875 C 163.882812 613.625 164.628906 614.023438 165.335938 614.496094 C 166.042969 614.964844 166.695312 615.503906 167.296875 616.101562 C 167.894531 616.703125 168.433594 617.359375 168.90625 618.0625 C 169.375 618.769531 169.773438 619.515625 170.101562 620.300781 C 170.425781 621.085938 170.671875 621.894531 170.835938 622.726562 C 171.003906 623.5625 171.085938 624.402344 171.085938 625.25 Z M 171.085938 625.25 " fill-opacity="1" fill-rule="nonzero"/><path fill="#45aaf7" d="M 256.796875 693.660156 C 256.796875 694.511719 256.714844 695.351562 256.550781 696.183594 C 256.382812 697.019531 256.136719 697.828125 255.8125 698.613281 C 255.488281 699.398438 255.089844 700.140625 254.617188 700.847656 C 254.144531 701.554688 253.609375 702.207031 253.007812 702.808594 C 252.40625 703.410156 251.753906 703.945312 251.046875 704.417969 C 250.34375 704.890625 249.597656 705.289062 248.8125 705.613281 C 248.027344 705.9375 247.21875 706.183594 246.382812 706.351562 C 245.550781 706.515625 244.710938 706.597656 243.859375 706.597656 C 243.011719 706.597656 242.167969 706.515625 241.335938 706.351562 C 240.503906 706.183594 239.695312 705.9375 238.910156 705.613281 C 238.125 705.289062 237.378906 704.890625 236.671875 704.417969 C 235.964844 703.945312 235.3125 703.410156 234.710938 702.808594 C 234.109375 702.207031 233.574219 701.554688 233.101562 700.847656 C 232.628906 700.140625 232.230469 699.398438 231.90625 698.613281 C 231.582031 697.828125 231.335938 697.019531 231.171875 696.183594 C 231.003906 695.351562 230.921875 694.511719 230.921875 693.660156 C 230.921875 692.8125 231.003906 691.96875 231.171875 691.136719 C 231.335938 690.304688 231.582031 689.496094 231.90625 688.710938 C 232.230469 687.925781 232.628906 687.179688 233.101562 686.472656 C 233.574219 685.765625 234.109375 685.113281 234.710938 684.511719 C 235.3125 683.910156 235.964844 683.375 236.671875 682.902344 C 237.378906 682.429688 238.125 682.03125 238.910156 681.707031 C 239.695312 681.382812 240.503906 681.136719 241.335938 680.972656 C 242.167969 680.804688 243.011719 680.722656 243.859375 680.722656 C 244.710938 680.722656 245.550781 680.804688 246.382812 680.972656 C 247.21875 681.136719 248.027344 681.382812 248.8125 681.707031 C 249.597656 682.03125 250.339844 682.429688 251.046875 682.902344 C 251.753906 683.375 252.40625 683.910156 253.007812 684.511719 C 253.609375 685.113281 254.144531 685.765625 254.617188 686.472656 C 255.089844 687.179688 255.488281 687.925781 255.8125 688.710938 C 256.136719 689.496094 256.382812 690.304688 256.550781 691.136719 C 256.714844 691.96875 256.796875 692.8125 256.796875 693.660156 Z M 256.796875 693.660156 " fill-opacity="1" fill-rule="nonzero"/><path fill="#45aaf7" d="M 342.511719 646.597656 C 342.511719 647.449219 342.429688 648.289062 342.261719 649.125 C 342.097656 649.957031 341.851562 650.765625 341.527344 651.550781 C 341.203125 652.335938 340.804688 653.082031 340.332031 653.789062 C 339.859375 654.492188 339.324219 655.148438 338.722656 655.746094 C 338.121094 656.347656 337.46875 656.882812 336.761719 657.355469 C 336.054688 657.828125 335.308594 658.226562 334.523438 658.550781 C 333.738281 658.878906 332.929688 659.121094 332.097656 659.289062 C 331.265625 659.453125 330.421875 659.535156 329.574219 659.539062 C 328.722656 659.535156 327.882812 659.453125 327.050781 659.289062 C 326.214844 659.121094 325.40625 658.878906 324.621094 658.550781 C 323.835938 658.226562 323.09375 657.828125 322.386719 657.355469 C 321.679688 656.882812 321.027344 656.347656 320.425781 655.746094 C 319.824219 655.148438 319.289062 654.492188 318.816406 653.789062 C 318.34375 653.082031 317.945312 652.335938 317.621094 651.550781 C 317.296875 650.765625 317.050781 649.957031 316.882812 649.125 C 316.71875 648.289062 316.636719 647.449219 316.636719 646.597656 C 316.636719 645.75 316.71875 644.910156 316.882812 644.074219 C 317.050781 643.242188 317.296875 642.433594 317.621094 641.648438 C 317.945312 640.863281 318.34375 640.117188 318.816406 639.410156 C 319.289062 638.703125 319.824219 638.050781 320.425781 637.449219 C 321.027344 636.851562 321.679688 636.3125 322.386719 635.84375 C 323.09375 635.371094 323.835938 634.972656 324.621094 634.644531 C 325.40625 634.320312 326.214844 634.074219 327.050781 633.910156 C 327.882812 633.746094 328.722656 633.660156 329.574219 633.660156 C 330.421875 633.660156 331.265625 633.746094 332.097656 633.910156 C 332.929688 634.074219 333.738281 634.320312 334.523438 634.644531 C 335.308594 634.972656 336.054688 635.371094 336.761719 635.84375 C 337.46875 636.3125 338.121094 636.851562 338.722656 637.449219 C 339.324219 638.050781 339.859375 638.703125 340.332031 639.410156 C 340.804688 640.117188 341.203125 640.863281 341.527344 641.648438 C 341.851562 642.433594 342.097656 643.242188 342.261719 644.074219 C 342.429688 644.910156 342.511719 645.75 342.511719 646.597656 Z M 342.511719 646.597656 " fill-opacity="1" fill-rule="nonzero"/><path fill="#45aaf7" d="M 428.226562 494.257812 C 428.226562 495.105469 428.140625 495.945312 427.976562 496.78125 C 427.808594 497.613281 427.566406 498.421875 427.238281 499.207031 C 426.914062 499.992188 426.515625 500.738281 426.042969 501.445312 C 425.574219 502.148438 425.035156 502.804688 424.433594 503.40625 C 423.835938 504.003906 423.179688 504.542969 422.472656 505.011719 C 421.769531 505.484375 421.023438 505.882812 420.238281 506.210938 C 419.453125 506.535156 418.644531 506.78125 417.8125 506.945312 C 416.976562 507.109375 416.136719 507.195312 415.285156 507.195312 C 414.4375 507.195312 413.597656 507.109375 412.761719 506.945312 C 411.929688 506.78125 411.121094 506.535156 410.335938 506.210938 C 409.550781 505.882812 408.804688 505.484375 408.097656 505.011719 C 407.394531 504.542969 406.738281 504.003906 406.136719 503.40625 C 405.539062 502.804688 405 502.148438 404.53125 501.445312 C 404.058594 500.738281 403.660156 499.992188 403.332031 499.207031 C 403.007812 498.421875 402.761719 497.613281 402.597656 496.78125 C 402.433594 495.945312 402.347656 495.105469 402.347656 494.257812 C 402.347656 493.40625 402.433594 492.566406 402.597656 491.730469 C 402.761719 490.898438 403.007812 490.089844 403.332031 489.304688 C 403.660156 488.519531 404.058594 487.773438 404.53125 487.066406 C 405 486.363281 405.539062 485.707031 406.136719 485.109375 C 406.738281 484.507812 407.394531 483.96875 408.097656 483.5 C 408.804688 483.027344 409.550781 482.628906 410.335938 482.304688 C 411.121094 481.976562 411.929688 481.734375 412.761719 481.566406 C 413.597656 481.402344 414.4375 481.316406 415.285156 481.316406 C 416.136719 481.316406 416.976562 481.402344 417.8125 481.566406 C 418.644531 481.734375 419.453125 481.976562 420.238281 482.304688 C 421.023438 482.628906 421.769531 483.027344 422.472656 483.5 C 423.179688 483.96875 423.835938 484.507812 424.433594 485.109375 C 425.035156 485.707031 425.574219 486.363281 426.042969 487.066406 C 426.515625 487.773438 426.914062 488.519531 427.238281 489.304688 C 427.566406 490.089844 427.808594 490.898438 427.976562 491.730469 C 428.140625 492.566406 428.226562 493.40625 428.226562 494.257812 Z M 428.226562 494.257812 " fill-opacity="1" fill-rule="nonzero"/><path fill="#45aaf7" d="M 513.9375 623.957031 C 513.9375 624.808594 513.855469 625.648438 513.6875 626.480469 C 513.523438 627.316406 513.277344 628.125 512.953125 628.910156 C 512.628906 629.695312 512.230469 630.441406 511.757812 631.144531 C 511.285156 631.851562 510.75 632.503906 510.148438 633.105469 C 509.546875 633.707031 508.894531 634.242188 508.1875 634.714844 C 507.480469 635.1875 506.734375 635.585938 505.949219 635.910156 C 505.167969 636.234375 504.355469 636.480469 503.523438 636.648438 C 502.691406 636.8125 501.847656 636.894531 501 636.894531 C 500.152344 636.894531 499.308594 636.8125 498.476562 636.648438 C 497.644531 636.480469 496.832031 636.234375 496.050781 635.910156 C 495.265625 635.585938 494.519531 635.1875 493.8125 634.714844 C 493.105469 634.242188 492.453125 633.707031 491.851562 633.105469 C 491.25 632.503906 490.714844 631.851562 490.242188 631.144531 C 489.769531 630.441406 489.371094 629.695312 489.046875 628.910156 C 488.722656 628.125 488.476562 627.316406 488.3125 626.480469 C 488.144531 625.648438 488.0625 624.808594 488.0625 623.957031 C 488.0625 623.109375 488.144531 622.265625 488.3125 621.433594 C 488.476562 620.601562 488.722656 619.792969 489.046875 619.007812 C 489.371094 618.222656 489.769531 617.476562 490.242188 616.769531 C 490.714844 616.0625 491.25 615.410156 491.851562 614.808594 C 492.453125 614.207031 493.105469 613.671875 493.8125 613.199219 C 494.519531 612.730469 495.265625 612.332031 496.050781 612.003906 C 496.832031 611.679688 497.644531 611.433594 498.476562 611.269531 C 499.308594 611.101562 500.152344 611.019531 501 611.019531 C 501.847656 611.019531 502.691406 611.101562 503.523438 611.269531 C 504.355469 611.433594 505.167969 611.679688 505.949219 612.003906 C 506.734375 612.332031 507.480469 612.730469 508.1875 613.199219 C 508.894531 613.671875 509.546875 614.207031 510.148438 614.808594 C 510.75 615.410156 511.285156 616.0625 511.757812 616.769531 C 512.230469 617.476562 512.628906 618.222656 512.953125 619.007812 C 513.277344 619.792969 513.523438 620.601562 513.6875 621.433594 C 513.855469 622.265625 513.9375 623.109375 513.9375 623.957031 Z M 513.9375 623.957031 " fill-opacity="1" fill-rule="nonzero"/><path fill="#45aaf7" d="M 599.652344 551.019531 C 599.652344 551.871094 599.566406 552.710938 599.402344 553.546875 C 599.238281 554.378906 598.992188 555.1875 598.667969 555.972656 C 598.339844 556.757812 597.941406 557.503906 597.46875 558.207031 C 597 558.914062 596.460938 559.570312 595.863281 560.167969 C 595.261719 560.769531 594.609375 561.304688 593.902344 561.777344 C 593.195312 562.25 592.449219 562.648438 591.664062 562.972656 C 590.878906 563.300781 590.070312 563.542969 589.238281 563.710938 C 588.402344 563.875 587.5625 563.957031 586.714844 563.957031 C 585.863281 563.957031 585.023438 563.875 584.1875 563.710938 C 583.355469 563.542969 582.546875 563.300781 581.761719 562.972656 C 580.976562 562.648438 580.230469 562.25 579.523438 561.777344 C 578.820312 561.304688 578.164062 560.769531 577.566406 560.167969 C 576.964844 559.570312 576.429688 558.914062 575.957031 558.207031 C 575.484375 557.503906 575.085938 556.757812 574.761719 555.972656 C 574.433594 555.1875 574.191406 554.378906 574.023438 553.546875 C 573.859375 552.710938 573.777344 551.871094 573.777344 551.019531 C 573.777344 550.171875 573.859375 549.328125 574.023438 548.496094 C 574.191406 547.664062 574.433594 546.855469 574.761719 546.070312 C 575.085938 545.285156 575.484375 544.539062 575.957031 543.832031 C 576.429688 543.125 576.964844 542.472656 577.566406 541.871094 C 578.164062 541.273438 578.820312 540.734375 579.523438 540.261719 C 580.230469 539.792969 580.976562 539.394531 581.761719 539.066406 C 582.546875 538.742188 583.355469 538.496094 584.1875 538.332031 C 585.023438 538.164062 585.863281 538.082031 586.714844 538.082031 C 587.5625 538.082031 588.402344 538.164062 589.238281 538.332031 C 590.070312 538.496094 590.878906 538.742188 591.664062 539.066406 C 592.449219 539.394531 593.195312 539.792969 593.902344 540.261719 C 594.609375 540.734375 595.261719 541.273438 595.863281 541.871094 C 596.460938 542.472656 597 543.125 597.46875 543.832031 C 597.941406 544.539062 598.339844 545.285156 598.667969 546.070312 C 598.992188 546.855469 599.238281 547.664062 599.402344 548.496094 C 599.566406 549.328125 599.652344 550.171875 599.652344 551.019531 Z M 599.652344 551.019531 " fill-opacity="1" fill-rule="nonzero"/><path fill="#45aaf7" d="M 685.363281 394.148438 C 685.363281 395 685.28125 395.839844 685.117188 396.671875 C 684.949219 397.507812 684.703125 398.316406 684.378906 399.101562 C 684.054688 399.886719 683.65625 400.632812 683.183594 401.335938 C 682.710938 402.042969 682.175781 402.695312 681.574219 403.296875 C 680.972656 403.898438 680.320312 404.433594 679.613281 404.90625 C 678.90625 405.378906 678.164062 405.777344 677.378906 406.101562 C 676.59375 406.425781 675.785156 406.671875 674.949219 406.839844 C 674.117188 407.003906 673.277344 407.085938 672.425781 407.085938 C 671.578125 407.085938 670.734375 407.003906 669.902344 406.839844 C 669.070312 406.671875 668.261719 406.425781 667.476562 406.101562 C 666.691406 405.777344 665.945312 405.378906 665.238281 404.90625 C 664.53125 404.433594 663.878906 403.898438 663.277344 403.296875 C 662.675781 402.695312 662.140625 402.042969 661.667969 401.335938 C 661.195312 400.632812 660.796875 399.886719 660.472656 399.101562 C 660.148438 398.316406 659.902344 397.507812 659.738281 396.671875 C 659.570312 395.839844 659.488281 395 659.488281 394.148438 C 659.488281 393.300781 659.570312 392.457031 659.738281 391.625 C 659.902344 390.792969 660.148438 389.984375 660.472656 389.199219 C 660.796875 388.414062 661.195312 387.667969 661.667969 386.960938 C 662.140625 386.253906 662.675781 385.601562 663.277344 385 C 663.878906 384.398438 664.53125 383.863281 665.238281 383.390625 C 665.945312 382.921875 666.691406 382.523438 667.476562 382.195312 C 668.261719 381.871094 669.070312 381.625 669.902344 381.460938 C 670.734375 381.292969 671.578125 381.210938 672.425781 381.210938 C 673.277344 381.210938 674.117188 381.292969 674.949219 381.460938 C 675.785156 381.625 676.59375 381.871094 677.378906 382.195312 C 678.164062 382.523438 678.90625 382.921875 679.613281 383.390625 C 680.320312 383.863281 680.972656 384.398438 681.574219 385 C 682.175781 385.601562 682.710938 386.253906 683.183594 386.960938 C 683.65625 387.667969 684.054688 388.414062 684.378906 389.199219 C 684.703125 389.984375 684.949219 390.792969 685.117188 391.625 C 685.28125 392.457031 685.363281 393.300781 685.363281 394.148438 Z M 685.363281 394.148438 " fill-opacity="1" fill-rule="nonzero"/><path fill="#45aaf7" d="M 771.078125 288.542969 C 771.078125 289.394531 770.996094 290.234375 770.828125 291.066406 C 770.664062 291.902344 770.417969 292.710938 770.09375 293.496094 C 769.769531 294.28125 769.367188 295.027344 768.898438 295.730469 C 768.425781 296.4375 767.890625 297.09375 767.289062 297.691406 C 766.6875 298.292969 766.035156 298.828125 765.328125 299.300781 C 764.621094 299.773438 763.875 300.171875 763.089844 300.496094 C 762.304688 300.824219 761.496094 301.066406 760.664062 301.234375 C 759.832031 301.398438 758.988281 301.480469 758.140625 301.480469 C 757.289062 301.480469 756.449219 301.398438 755.617188 301.234375 C 754.78125 301.066406 753.972656 300.824219 753.1875 300.496094 C 752.402344 300.171875 751.660156 299.773438 750.953125 299.300781 C 750.246094 298.828125 749.59375 298.292969 748.992188 297.691406 C 748.390625 297.09375 747.855469 296.4375 747.382812 295.730469 C 746.910156 295.027344 746.511719 294.28125 746.1875 293.496094 C 745.863281 292.710938 745.617188 291.902344 745.449219 291.066406 C 745.285156 290.234375 745.203125 289.394531 745.203125 288.542969 C 745.203125 287.695312 745.285156 286.851562 745.449219 286.019531 C 745.617188 285.1875 745.863281 284.378906 746.1875 283.59375 C 746.511719 282.808594 746.910156 282.0625 747.382812 281.355469 C 747.855469 280.648438 748.390625 279.996094 748.992188 279.394531 C 749.59375 278.796875 750.246094 278.257812 750.953125 277.785156 C 751.660156 277.316406 752.402344 276.917969 753.1875 276.589844 C 753.972656 276.265625 754.78125 276.019531 755.617188 275.855469 C 756.449219 275.6875 757.289062 275.605469 758.140625 275.605469 C 758.988281 275.605469 759.832031 275.6875 760.664062 275.855469 C 761.496094 276.019531 762.304688 276.265625 763.089844 276.589844 C 763.875 276.917969 764.621094 277.316406 765.328125 277.785156 C 766.035156 278.257812 766.6875 278.796875 767.289062 279.394531 C 767.890625 279.996094 768.425781 280.648438 768.898438 281.355469 C 769.367188 282.0625 769.769531 282.808594 770.09375 283.59375 C 770.417969 284.378906 770.664062 285.1875 770.828125 286.019531 C 770.996094 286.851562 771.078125 287.695312 771.078125 288.542969 Z M 771.078125 288.542969 " fill-opacity="1" fill-rule="nonzero"/><path fill="#45aaf7" d="M 856.789062 245.527344 C 856.789062 246.375 856.707031 247.21875 856.542969 248.050781 C 856.375 248.882812 856.132812 249.691406 855.804688 250.476562 C 855.480469 251.261719 855.082031 252.007812 854.609375 252.714844 C 854.136719 253.421875 853.601562 254.074219 853 254.675781 C 852.402344 255.273438 851.746094 255.8125 851.039062 256.285156 C 850.335938 256.753906 849.589844 257.152344 848.804688 257.480469 C 848.019531 257.804688 847.210938 258.050781 846.378906 258.214844 C 845.542969 258.382812 844.703125 258.464844 843.851562 258.464844 C 843.003906 258.464844 842.164062 258.382812 841.328125 258.214844 C 840.496094 258.050781 839.6875 257.804688 838.902344 257.480469 C 838.117188 257.152344 837.371094 256.753906 836.664062 256.285156 C 835.957031 255.8125 835.304688 255.273438 834.703125 254.675781 C 834.105469 254.074219 833.566406 253.421875 833.09375 252.714844 C 832.625 252.007812 832.226562 251.261719 831.898438 250.476562 C 831.574219 249.691406 831.328125 248.882812 831.164062 248.050781 C 830.996094 247.21875 830.914062 246.375 830.914062 245.527344 C 830.914062 244.675781 830.996094 243.835938 831.164062 243 C 831.328125 242.167969 831.574219 241.359375 831.898438 240.574219 C 832.226562 239.789062 832.625 239.042969 833.09375 238.339844 C 833.566406 237.632812 834.105469 236.976562 834.703125 236.378906 C 835.304688 235.777344 835.957031 235.242188 836.664062 234.769531 C 837.371094 234.296875 838.117188 233.898438 838.902344 233.574219 C 839.6875 233.246094 840.496094 233.003906 841.328125 232.835938 C 842.164062 232.671875 843.003906 232.589844 843.851562 232.589844 C 844.703125 232.589844 845.542969 232.671875 846.378906 232.835938 C 847.210938 233.003906 848.019531 233.246094 848.804688 233.574219 C 849.589844 233.898438 850.335938 234.296875 851.039062 234.769531 C 851.746094 235.242188 852.402344 235.777344 853 236.378906 C 853.601562 236.976562 854.136719 237.632812 854.609375 238.339844 C 855.082031 239.042969 855.480469 239.789062 855.804688 240.574219 C 856.132812 241.359375 856.375 242.167969 856.542969 243 C 856.707031 243.835938 856.789062 244.675781 856.789062 245.527344 Z M 856.789062 245.527344 " fill-opacity="1" fill-rule="nonzero"/><path fill="#45aaf7" d="M 942.503906 463.851562 C 942.503906 464.703125 942.421875 465.542969 942.253906 466.375 C 942.089844 467.210938 941.84375 468.019531 941.519531 468.804688 C 941.195312 469.589844 940.796875 470.332031 940.324219 471.039062 C 939.851562 471.746094 939.316406 472.398438 938.714844 473 C 938.113281 473.601562 937.460938 474.136719 936.753906 474.609375 C 936.046875 475.082031 935.300781 475.480469 934.515625 475.804688 C 933.734375 476.128906 932.921875 476.375 932.089844 476.542969 C 931.257812 476.707031 930.414062 476.789062 929.566406 476.789062 C 928.71875 476.789062 927.875 476.707031 927.042969 476.542969 C 926.207031 476.375 925.398438 476.128906 924.613281 475.804688 C 923.832031 475.480469 923.085938 475.082031 922.378906 474.609375 C 921.671875 474.136719 921.019531 473.601562 920.417969 473 C 919.816406 472.398438 919.28125 471.746094 918.808594 471.039062 C 918.335938 470.332031 917.9375 469.589844 917.613281 468.804688 C 917.289062 468.019531 917.042969 467.210938 916.878906 466.375 C 916.710938 465.542969 916.628906 464.703125 916.628906 463.851562 C 916.628906 463.003906 916.710938 462.160156 916.878906 461.328125 C 917.042969 460.496094 917.289062 459.6875 917.613281 458.902344 C 917.9375 458.117188 918.335938 457.371094 918.808594 456.664062 C 919.28125 455.957031 919.816406 455.304688 920.417969 454.703125 C 921.019531 454.101562 921.671875 453.566406 922.378906 453.09375 C 923.085938 452.621094 923.832031 452.222656 924.613281 451.898438 C 925.398438 451.574219 926.207031 451.328125 927.042969 451.164062 C 927.875 450.996094 928.71875 450.914062 929.566406 450.914062 C 930.414062 450.914062 931.257812 450.996094 932.089844 451.164062 C 932.921875 451.328125 933.734375 451.574219 934.515625 451.898438 C 935.300781 452.222656 936.046875 452.621094 936.753906 453.09375 C 937.460938 453.566406 938.113281 454.101562 938.714844 454.703125 C 939.316406 455.304688 939.851562 455.957031 940.324219 456.664062 C 940.796875 457.371094 941.195312 458.117188 941.519531 458.902344 C 941.84375 459.6875 942.089844 460.496094 942.253906 461.328125 C 942.421875 462.160156 942.503906 463.003906 942.503906 463.851562 Z M 942.503906 463.851562 " fill-opacity="1" fill-rule="nonzero"/><path fill="#45aaf7" d="M 1028.21875 195.554688 C 1028.21875 196.402344 1028.132812 197.246094 1027.96875 198.078125 C 1027.804688 198.910156 1027.558594 199.71875 1027.234375 200.503906 C 1026.90625 201.289062 1026.507812 202.035156 1026.035156 202.742188 C 1025.566406 203.449219 1025.027344 204.101562 1024.429688 204.703125 C 1023.828125 205.300781 1023.175781 205.839844 1022.46875 206.3125 C 1021.761719 206.78125 1021.015625 207.179688 1020.230469 207.507812 C 1019.445312 207.832031 1018.636719 208.078125 1017.804688 208.242188 C 1016.96875 208.410156 1016.128906 208.492188 1015.28125 208.492188 C 1014.429688 208.492188 1013.589844 208.410156 1012.753906 208.242188 C 1011.921875 208.078125 1011.113281 207.832031 1010.328125 207.507812 C 1009.542969 207.179688 1008.796875 206.78125 1008.089844 206.3125 C 1007.386719 205.839844 1006.730469 205.300781 1006.132812 204.703125 C 1005.53125 204.101562 1004.992188 203.449219 1004.523438 202.742188 C 1004.050781 202.035156 1003.652344 201.289062 1003.328125 200.503906 C 1003 199.71875 1002.757812 198.910156 1002.589844 198.078125 C 1002.425781 197.246094 1002.339844 196.402344 1002.34375 195.554688 C 1002.339844 194.703125 1002.425781 193.863281 1002.589844 193.03125 C 1002.757812 192.195312 1003 191.386719 1003.328125 190.601562 C 1003.652344 189.816406 1004.050781 189.070312 1004.523438 188.367188 C 1004.996094 187.660156 1005.53125 187.003906 1006.132812 186.40625 C 1006.730469 185.804688 1007.386719 185.269531 1008.089844 184.796875 C 1008.796875 184.324219 1009.542969 183.925781 1010.328125 183.601562 C 1011.113281 183.277344 1011.921875 183.03125 1012.753906 182.863281 C 1013.589844 182.699219 1014.429688 182.617188 1015.28125 182.617188 C 1016.128906 182.617188 1016.96875 182.699219 1017.804688 182.863281 C 1018.636719 183.03125 1019.445312 183.277344 1020.230469 183.601562 C 1021.015625 183.925781 1021.761719 184.324219 1022.46875 184.796875 C 1023.175781 185.269531 1023.828125 185.804688 1024.429688 186.40625 C 1025.027344 187.003906 1025.566406 187.660156 1026.035156 188.367188 C 1026.507812 189.070312 1026.90625 189.816406 1027.234375 190.601562 C 1027.558594 191.386719 1027.804688 192.195312 1027.96875 193.03125 C 1028.132812 193.863281 1028.21875 194.703125 1028.21875 195.554688 Z M 1028.21875 195.554688 " fill-opacity="1" fill-rule="nonzero"/><path fill="#45aaf7" d="M 1113.929688 282.722656 C 1113.929688 283.570312 1113.847656 284.414062 1113.683594 285.246094 C 1113.515625 286.078125 1113.269531 286.886719 1112.945312 287.671875 C 1112.621094 288.457031 1112.222656 289.203125 1111.75 289.910156 C 1111.277344 290.617188 1110.742188 291.269531 1110.140625 291.871094 C 1109.539062 292.472656 1108.886719 293.007812 1108.179688 293.480469 C 1107.472656 293.953125 1106.730469 294.351562 1105.945312 294.675781 C 1105.160156 295 1104.351562 295.246094 1103.515625 295.410156 C 1102.683594 295.578125 1101.84375 295.660156 1100.992188 295.660156 C 1100.144531 295.660156 1099.300781 295.578125 1098.46875 295.410156 C 1097.636719 295.246094 1096.828125 295 1096.042969 294.675781 C 1095.257812 294.351562 1094.511719 293.953125 1093.804688 293.480469 C 1093.097656 293.007812 1092.445312 292.472656 1091.84375 291.871094 C 1091.242188 291.269531 1090.707031 290.617188 1090.234375 289.910156 C 1089.761719 289.203125 1089.363281 288.457031 1089.039062 287.671875 C 1088.714844 286.886719 1088.46875 286.078125 1088.304688 285.246094 C 1088.136719 284.414062 1088.054688 283.570312 1088.054688 282.722656 C 1088.054688 281.871094 1088.136719 281.03125 1088.304688 280.199219 C 1088.46875 279.363281 1088.714844 278.554688 1089.039062 277.769531 C 1089.363281 276.984375 1089.761719 276.242188 1090.234375 275.535156 C 1090.707031 274.828125 1091.242188 274.175781 1091.84375 273.574219 C 1092.445312 272.972656 1093.097656 272.4375 1093.804688 271.964844 C 1094.511719 271.492188 1095.257812 271.09375 1096.042969 270.769531 C 1096.828125 270.445312 1097.636719 270.199219 1098.46875 270.03125 C 1099.300781 269.867188 1100.144531 269.785156 1100.992188 269.785156 C 1101.84375 269.785156 1102.683594 269.867188 1103.515625 270.03125 C 1104.351562 270.199219 1105.160156 270.445312 1105.945312 270.769531 C 1106.730469 271.09375 1107.472656 271.492188 1108.179688 271.964844 C 1108.886719 272.4375 1109.539062 272.972656 1110.140625 273.574219 C 1110.742188 274.175781 1111.277344 274.828125 1111.75 275.535156 C 1112.222656 276.242188 1112.621094 276.984375 1112.945312 277.769531 C 1113.269531 278.554688 1113.515625 279.363281 1113.683594 280.199219 C 1113.847656 281.03125 1113.929688 281.871094 1113.929688 282.722656 Z M 1113.929688 282.722656 " fill-opacity="1" fill-rule="nonzero"/><path fill="#45aaf7" d="M 1199.644531 192.320312 C 1199.644531 193.167969 1199.5625 194.011719 1199.394531 194.84375 C 1199.230469 195.675781 1198.984375 196.484375 1198.660156 197.269531 C 1198.332031 198.054688 1197.933594 198.800781 1197.464844 199.507812 C 1196.992188 200.214844 1196.457031 200.867188 1195.855469 201.46875 C 1195.253906 202.066406 1194.601562 202.605469 1193.894531 203.078125 C 1193.1875 203.546875 1192.441406 203.945312 1191.65625 204.273438 C 1190.871094 204.597656 1190.0625 204.84375 1189.230469 205.007812 C 1188.398438 205.175781 1187.554688 205.257812 1186.707031 205.257812 C 1185.855469 205.257812 1185.015625 205.175781 1184.183594 205.007812 C 1183.347656 204.84375 1182.539062 204.597656 1181.753906 204.273438 C 1180.96875 203.945312 1180.222656 203.546875 1179.519531 203.078125 C 1178.8125 202.605469 1178.160156 202.066406 1177.558594 201.46875 C 1176.957031 200.867188 1176.421875 200.214844 1175.949219 199.507812 C 1175.476562 198.800781 1175.078125 198.054688 1174.753906 197.269531 C 1174.429688 196.484375 1174.183594 195.675781 1174.015625 194.84375 C 1173.851562 194.011719 1173.769531 193.167969 1173.769531 192.320312 C 1173.769531 191.46875 1173.851562 190.628906 1174.015625 189.796875 C 1174.183594 188.960938 1174.429688 188.152344 1174.753906 187.367188 C 1175.078125 186.582031 1175.476562 185.835938 1175.949219 185.132812 C 1176.421875 184.425781 1176.957031 183.769531 1177.558594 183.171875 C 1178.160156 182.570312 1178.8125 182.035156 1179.519531 181.5625 C 1180.222656 181.089844 1180.96875 180.691406 1181.753906 180.367188 C 1182.539062 180.039062 1183.347656 179.796875 1184.183594 179.628906 C 1185.015625 179.464844 1185.855469 179.382812 1186.707031 179.382812 C 1187.554688 179.382812 1188.398438 179.464844 1189.230469 179.628906 C 1190.0625 179.796875 1190.871094 180.039062 1191.65625 180.367188 C 1192.441406 180.691406 1193.1875 181.089844 1193.894531 181.5625 C 1194.601562 182.035156 1195.253906 182.570312 1195.855469 183.171875 C 1196.457031 183.769531 1196.992188 184.425781 1197.464844 185.132812 C 1197.933594 185.835938 1198.332031 186.582031 1198.660156 187.367188 C 1198.984375 188.152344 1199.230469 188.960938 1199.394531 189.796875 C 1199.5625 190.628906 1199.644531 191.46875 1199.644531 192.320312 Z M 1199.644531 192.320312 " fill-opacity="1" fill-rule="nonzero"/><g clip-path="url(#63bc1c5529)"><g clip-path="url(#20123d97da)"><g clip-path="url(#868b5759dd)"><path fill="#a5e2ff" d="M 713.039062 222.617188 C 700.96875 222.617188 691.148438 232.4375 691.148438 244.507812 C 691.148438 256.578125 700.96875 266.398438 713.039062 266.398438 L 973.152344 266.398438 C 985.222656 266.398438 995.042969 256.578125 995.042969 244.507812 C 995.042969 232.4375 985.222656 222.617188 973.152344 222.617188 Z M 973.152344 267.007812 L 713.039062 267.007812 C 700.632812 267.007812 690.542969 256.914062 690.542969 244.507812 C 690.542969 232.101562 700.632812 222.007812 713.039062 222.007812 L 973.152344 222.007812 C 985.558594 222.007812 995.652344 232.101562 995.652344 244.507812 C 995.652344 256.914062 985.558594 267.007812 973.152344 267.007812 " fill-opacity="1" fill-rule="nonzero"/></g></g></g><g clip-path="url(#888c6f922e)"><g clip-path="url(#e9e8e272c2)"><g clip-path="url(#cbe712d05b)"><path stroke-linecap="butt" transform="matrix(1.034462, 0, 0, 1.034462, 772.221879, 222.008023)" fill="none" stroke-linejoin="miter" d="M 0.000751737 21.750229 C 0.000751737 33.762057 9.739358 43.500662 21.754963 43.500662 L 148.602289 43.500662 C 160.617894 43.500662 170.360276 33.762057 170.360276 21.750229 C 170.360276 9.738402 160.617894 -0.000203275 148.602289 -0.000203275 L 21.754963 -0.000203275 C 9.739358 -0.000203275 0.000751737 9.738402 0.000751737 21.750229 Z M 0.000751737 21.750229 " stroke="#007bff" stroke-width="59.45118" stroke-opacity="1" stroke-miterlimit="4"/></g></g></g><g fill="#ffffff" fill-opacity="1"><g transform="translate(805.33365, 256.727721)"><g><path d="M 3.1875 -0.546875 C 1.382812 -0.742188 0.207031 -1.378906 -0.34375 -2.453125 C -0.90625 -3.523438 -0.941406 -5.117188 -0.453125 -7.234375 L -0.265625 -8.046875 L 4.890625 -8.046875 L 4.734375 -7.4375 C 4.390625 -5.90625 4.675781 -5.140625 5.59375 -5.140625 C 6 -5.140625 6.34375 -5.296875 6.625 -5.609375 C 6.90625 -5.921875 7.097656 -6.3125 7.203125 -6.78125 C 7.285156 -7.125 7.101562 -7.628906 6.65625 -8.296875 L 3.40625 -12.609375 C 2.164062 -14.148438 1.757812 -15.835938 2.1875 -17.671875 C 2.507812 -19.109375 3.253906 -20.304688 4.421875 -21.265625 C 5.585938 -22.234375 6.910156 -22.847656 8.390625 -23.109375 L 8.8125 -24.90625 L 11.359375 -24.90625 L 10.96875 -23.140625 C 12.582031 -22.941406 13.695312 -22.253906 14.3125 -21.078125 C 14.9375 -19.898438 15.015625 -18.34375 14.546875 -16.40625 L 9.265625 -16.40625 L 9.53125 -17.640625 C 9.570312 -17.910156 9.492188 -18.148438 9.296875 -18.359375 C 9.109375 -18.578125 8.863281 -18.6875 8.5625 -18.6875 C 8.21875 -18.6875 7.898438 -18.578125 7.609375 -18.359375 C 7.316406 -18.148438 7.128906 -17.875 7.046875 -17.53125 C 6.921875 -17.039062 7.234375 -16.3125 7.984375 -15.34375 L 11.203125 -11.234375 C 11.734375 -10.585938 12.101562 -9.828125 12.3125 -8.953125 C 12.53125 -8.085938 12.515625 -7.148438 12.265625 -6.140625 C 11.898438 -4.535156 11.117188 -3.242188 9.921875 -2.265625 C 8.734375 -1.285156 7.335938 -0.703125 5.734375 -0.515625 L 5.21875 1.671875 L 2.671875 1.671875 Z M 3.1875 -0.546875 "/></g></g></g><g fill="#ffffff" fill-opacity="1"><g transform="translate(819.365106, 256.727721)"><g><path d="M -1.796875 -1.25 C -1.523438 -2.4375 -1.082031 -3.535156 -0.46875 -4.546875 C 0.144531 -5.566406 0.816406 -6.476562 1.546875 -7.28125 C 2.273438 -8.09375 3.207031 -9.046875 4.34375 -10.140625 C 5.519531 -11.273438 6.46875 -12.238281 7.1875 -13.03125 C 7.90625 -13.820312 8.570312 -14.726562 9.1875 -15.75 C 9.800781 -16.769531 10.242188 -17.878906 10.515625 -19.078125 C 10.671875 -19.785156 10.691406 -20.335938 10.578125 -20.734375 C 10.472656 -21.128906 10.15625 -21.328125 9.625 -21.328125 C 8.757812 -21.328125 8.15625 -20.546875 7.8125 -18.984375 L 7.046875 -15.796875 L 1.546875 -15.796875 L 1.890625 -17.40625 C 2.328125 -19.382812 2.894531 -21.007812 3.59375 -22.28125 C 4.289062 -23.5625 5.226562 -24.535156 6.40625 -25.203125 C 7.582031 -25.878906 9.0625 -26.21875 10.84375 -26.21875 C 13.03125 -26.21875 14.578125 -25.601562 15.484375 -24.375 C 16.398438 -23.144531 16.59375 -21.410156 16.0625 -19.171875 C 15.738281 -17.734375 15.242188 -16.429688 14.578125 -15.265625 C 13.910156 -14.097656 13.1875 -13.078125 12.40625 -12.203125 C 11.625 -11.335938 10.628906 -10.316406 9.421875 -9.140625 C 8.523438 -8.304688 7.773438 -7.566406 7.171875 -6.921875 C 6.578125 -6.273438 6.019531 -5.609375 5.5 -4.921875 L 12.609375 -4.921875 L 11.453125 0 L -2.09375 0 Z M -1.796875 -1.25 "/></g></g></g><g fill="#ffffff" fill-opacity="1"><g transform="translate(834.368438, 256.727721)"><g><path d="M 4.46875 0.25 C 2.257812 0.25 0.703125 -0.375 -0.203125 -1.625 C -1.117188 -2.875 -1.304688 -4.648438 -0.765625 -6.953125 L 1.9375 -18.734375 C 2.507812 -21.210938 3.523438 -23.097656 4.984375 -24.390625 C 6.441406 -25.679688 8.316406 -26.328125 10.609375 -26.328125 C 12.910156 -26.328125 14.484375 -25.679688 15.328125 -24.390625 C 16.179688 -23.097656 16.328125 -21.210938 15.765625 -18.734375 L 13.0625 -6.953125 C 12.507812 -4.628906 11.492188 -2.847656 10.015625 -1.609375 C 8.546875 -0.367188 6.695312 0.25 4.46875 0.25 Z M 5.5625 -4.5625 C 5.945312 -4.5625 6.304688 -4.738281 6.640625 -5.09375 C 6.972656 -5.445312 7.191406 -5.863281 7.296875 -6.34375 L 10.265625 -19.234375 C 10.453125 -19.972656 10.503906 -20.539062 10.421875 -20.9375 C 10.335938 -21.332031 10.035156 -21.53125 9.515625 -21.53125 C 8.984375 -21.53125 8.585938 -21.332031 8.328125 -20.9375 C 8.078125 -20.539062 7.863281 -19.972656 7.6875 -19.234375 L 4.703125 -6.34375 C 4.609375 -5.863281 4.628906 -5.445312 4.765625 -5.09375 C 4.910156 -4.738281 5.175781 -4.5625 5.5625 -4.5625 Z M 5.5625 -4.5625 "/></g></g></g><g fill="#ffffff" fill-opacity="1"><g transform="translate(849.37177, 256.727721)"><g><path d="M 5.21875 -20.109375 C 4.78125 -19.679688 4.21875 -19.335938 3.53125 -19.078125 C 2.851562 -18.816406 2.234375 -18.6875 1.671875 -18.6875 L 2.609375 -22.84375 C 3.546875 -22.976562 4.519531 -23.328125 5.53125 -23.890625 C 6.539062 -24.460938 7.335938 -25.207031 7.921875 -26.125 L 12.125 -26.125 L 6.109375 0 L 0.578125 0 Z M 5.21875 -20.109375 "/></g></g></g><g fill="#ffffff" fill-opacity="1"><g transform="translate(859.424613, 256.727721)"><g><path d="M 0.8125 3.5 L 2.578125 0 L 0.703125 0 L 1.734375 -4.4375 L 7.265625 -4.4375 L 6.28125 -0.15625 L 3.953125 3.5 Z M 0.8125 3.5 "/></g></g></g><g fill="#ffffff" fill-opacity="1"><g transform="translate(866.592197, 256.727721)"><g><path d="M 5.21875 -20.109375 C 4.78125 -19.679688 4.21875 -19.335938 3.53125 -19.078125 C 2.851562 -18.816406 2.234375 -18.6875 1.671875 -18.6875 L 2.609375 -22.84375 C 3.546875 -22.976562 4.519531 -23.328125 5.53125 -23.890625 C 6.539062 -24.460938 7.335938 -25.207031 7.921875 -26.125 L 12.125 -26.125 L 6.109375 0 L 0.578125 0 Z M 5.21875 -20.109375 "/></g></g></g><g fill="#ffffff" fill-opacity="1"><g transform="translate(876.64504, 256.727721)"><g><path d="M 4.46875 0.25 C 2.257812 0.25 0.703125 -0.375 -0.203125 -1.625 C -1.117188 -2.875 -1.304688 -4.648438 -0.765625 -6.953125 L 1.9375 -18.734375 C 2.507812 -21.210938 3.523438 -23.097656 4.984375 -24.390625 C 6.441406 -25.679688 8.316406 -26.328125 10.609375 -26.328125 C 12.910156 -26.328125 14.484375 -25.679688 15.328125 -24.390625 C 16.179688 -23.097656 16.328125 -21.210938 15.765625 -18.734375 L 13.0625 -6.953125 C 12.507812 -4.628906 11.492188 -2.847656 10.015625 -1.609375 C 8.546875 -0.367188 6.695312 0.25 4.46875 0.25 Z M 5.5625 -4.5625 C 5.945312 -4.5625 6.304688 -4.738281 6.640625 -5.09375 C 6.972656 -5.445312 7.191406 -5.863281 7.296875 -6.34375 L 10.265625 -19.234375 C 10.453125 -19.972656 10.503906 -20.539062 10.421875 -20.9375 C 10.335938 -21.332031 10.035156 -21.53125 9.515625 -21.53125 C 8.984375 -21.53125 8.585938 -21.332031 8.328125 -20.9375 C 8.078125 -20.539062 7.863281 -19.972656 7.6875 -19.234375 L 4.703125 -6.34375 C 4.609375 -5.863281 4.628906 -5.445312 4.765625 -5.09375 C 4.910156 -4.738281 5.175781 -4.5625 5.5625 -4.5625 Z M 5.5625 -4.5625 "/></g></g></g><g fill="#ffffff" fill-opacity="1"><g transform="translate(891.648372, 256.727721)"><g><path d="M 4.46875 0.359375 C 2.382812 0.359375 0.847656 -0.148438 -0.140625 -1.171875 C -1.140625 -2.191406 -1.40625 -3.703125 -0.9375 -5.703125 L -0.0625 -9.5625 L 5.375 -9.5625 L 4.859375 -7.34375 C 4.660156 -6.457031 4.585938 -5.757812 4.640625 -5.25 C 4.703125 -4.75 5.019531 -4.5 5.59375 -4.5 C 6.113281 -4.5 6.507812 -4.671875 6.78125 -5.015625 C 7.0625 -5.359375 7.28125 -5.863281 7.4375 -6.53125 L 8.625 -11.65625 C 8.8125 -12.488281 8.878906 -13.148438 8.828125 -13.640625 C 8.773438 -14.140625 8.472656 -14.390625 7.921875 -14.390625 C 6.929688 -14.390625 6.265625 -13.671875 5.921875 -12.234375 L 1.15625 -12.234375 L 4.375 -26.125 L 16.796875 -26.125 L 15.640625 -21.234375 L 8.171875 -21.234375 L 7.359375 -17.5625 C 7.679688 -17.90625 8.09375 -18.1875 8.59375 -18.40625 C 9.101562 -18.625 9.640625 -18.734375 10.203125 -18.734375 C 12.390625 -18.734375 13.703125 -17.960938 14.140625 -16.421875 C 14.578125 -14.890625 14.472656 -12.71875 13.828125 -9.90625 C 13.296875 -7.570312 12.695312 -5.679688 12.03125 -4.234375 C 11.363281 -2.785156 10.425781 -1.65625 9.21875 -0.84375 C 8.007812 -0.0390625 6.425781 0.359375 4.46875 0.359375 Z M 4.46875 0.359375 "/></g></g></g></svg>